<svg width="81" height="34" viewBox="0 0 81 34" fill="none" xmlns="http://www.w3.org/2000/svg">
<path d="M3 24.6596V9.34043H6.15059L13.8993 19.4468V9.34043H17.3054V24.6596H14.1122L6.40604 14.6383V24.6596H3Z" fill="#1E1E1E"/>
<path d="M34.8859 24.6596L40.6975 16.6383L35.6736 9.34043H39.4628L42.5921 14.1064L45.7214 9.34043H49.5106L44.4867 16.6383L50.2983 24.6596H46.211L42.5921 19.3191L38.9732 24.6596H34.8859Z" fill="#1E1E1E"/>
<path d="M54.6544 9.34043V18.5319C54.6544 19 54.7325 19.4397 54.8886 19.8511C55.0447 20.2624 55.2647 20.6241 55.5485 20.9362C55.8324 21.2482 56.1659 21.4965 56.549 21.6809C56.9322 21.8511 57.358 21.9362 57.8263 21.9362C58.2946 21.9362 58.7204 21.8511 59.1036 21.6809C59.4868 21.4965 59.8203 21.2482 60.1041 20.9362C60.3879 20.6241 60.6079 20.2624 60.764 19.8511C60.9201 19.4397 60.9982 19 60.9982 18.5319V9.34043H64.4042V18.7447C64.4042 19.6383 64.2339 20.4681 63.8933 21.234C63.5669 22 63.1057 22.6596 62.5096 23.2128C61.9278 23.766 61.2324 24.2057 60.4234 24.5319C59.6287 24.844 58.763 25 57.8263 25C56.8897 25 56.0168 24.844 55.2079 24.5319C54.4132 24.2057 53.7178 23.766 53.1217 23.2128C52.5398 22.6596 52.0786 22 51.738 21.234C51.4116 20.4681 51.2484 19.6383 51.2484 18.7447V9.34043H54.6544Z" fill="#1E1E1E"/>
<path d="M73.5581 15.6809C74.0832 15.7801 74.587 15.9433 75.0696 16.1702C75.5663 16.383 76.0062 16.6667 76.3894 17.0213C76.7726 17.3759 77.0777 17.7943 77.3048 18.2766C77.546 18.7447 77.6667 19.2837 77.6667 19.8936C77.6667 20.6312 77.5248 21.3121 77.2409 21.9362C76.9713 22.5603 76.581 23.0993 76.0701 23.5532C75.5592 24.0071 74.9347 24.3617 74.1968 24.617C73.473 24.8723 72.657 25 71.7487 25C70.9255 25 70.1592 24.8582 69.4496 24.5745C68.74 24.2766 68.1227 23.8794 67.5976 23.383C67.0867 22.8865 66.6822 22.3121 66.3842 21.6596C66.1003 21.0071 65.9584 20.3191 65.9584 19.5957H69.2793C69.3503 20.2624 69.6057 20.8227 70.0457 21.2766C70.4998 21.7163 71.0675 21.9362 71.7487 21.9362C72.5434 21.9362 73.175 21.7589 73.6433 21.4043C74.1258 21.0496 74.3671 20.5461 74.3671 19.8936C74.3671 19.5674 74.2819 19.305 74.1116 19.1064C73.9555 18.8936 73.7213 18.7092 73.4091 18.5532C73.0969 18.3972 72.7137 18.2624 72.2596 18.1489C71.8196 18.0213 71.3158 17.8936 70.7481 17.766C70.1237 17.6241 69.5347 17.4397 68.9813 17.2128C68.4278 16.9858 67.9382 16.7092 67.5124 16.383C67.1008 16.0567 66.7744 15.6809 66.5332 15.2553C66.2919 14.8298 66.1713 14.3404 66.1713 13.7872C66.1713 13.078 66.299 12.4326 66.5545 11.8511C66.8241 11.2695 67.2002 10.766 67.6827 10.3404C68.1652 9.91489 68.7471 9.58865 69.4283 9.3617C70.1237 9.12057 70.8972 9 71.7487 9C72.515 9 73.2388 9.12057 73.92 9.3617C74.6012 9.60284 75.1973 9.93617 75.7082 10.3617C76.2333 10.7872 76.6449 11.2908 76.9429 11.8723C77.2409 12.4397 77.3899 13.0638 77.3899 13.7447H74.0052C73.8633 13.2624 73.5794 12.8652 73.1537 12.5532C72.7421 12.227 72.2738 12.0638 71.7487 12.0638C71.11 12.0638 70.5708 12.2199 70.1308 12.5319C69.6909 12.8298 69.4709 13.2057 69.4709 13.6596C69.4709 13.9291 69.5844 14.1702 69.8115 14.383C70.0528 14.5957 70.365 14.7872 70.7481 14.9574C71.1313 15.1135 71.5642 15.2553 72.0467 15.383C72.5434 15.4965 73.0472 15.5957 73.5581 15.6809Z" fill="#1E1E1E"/>
<path fill-rule="evenodd" clip-rule="evenodd" d="M21.9303 13.2262C20.6666 13.5134 19.1974 13.8473 19.1974 16.9855C19.1974 21.4883 21.6843 24.9668 26.3226 24.9668C30.9609 24.9668 35.6195 20.503 35.6195 16.0002C35.6195 11.4975 32.0469 9.00039 27.4086 9.00039C24.2016 9.00039 24.004 10.219 23.823 11.3353C23.7422 11.8335 23.6647 12.3113 23.3245 12.6513C22.9905 12.9852 22.4798 13.1013 21.9303 13.2262ZM29.7812 20.6257C32.0696 19.1355 32.8625 16.2979 31.5522 14.2878C30.2418 12.2777 27.3245 11.8562 25.0361 13.3464C22.7477 14.8366 21.9548 17.6742 23.2651 19.6843C24.5755 21.6944 27.4928 22.1159 29.7812 20.6257Z" fill="#1E1E1E"/>
</svg>
