<?xml version="1.0" encoding="UTF-8"?>
<svg id="Layer_2" data-name="Layer 2" xmlns="http://www.w3.org/2000/svg" xmlns:xlink="http://www.w3.org/1999/xlink" viewBox="0 0 1231.48 354.43">
  <defs>
    <style>
      .cls-1 {
        fill: url(#_Безымянный_градиент_9);
      }

      .cls-1, .cls-2, .cls-3, .cls-4, .cls-5 {
        stroke-width: 0px;
      }

      .cls-2 {
        fill: url(#_Безымянный_градиент_5);
      }

      .cls-3 {
        fill: #8920ed;
      }

      .cls-4 {
        fill: #9268f7;
      }

      .cls-5 {
        fill: #fff;
      }
    </style>
    <linearGradient id="_Безымянный_градиент_9" data-name="Безымянный градиент 9" x1="185.62" y1="147.3" x2="274.59" y2="147.3" gradientUnits="userSpaceOnUse">
      <stop offset="0" stop-color="#8920ed"/>
      <stop offset="1" stop-color="#5817a3"/>
    </linearGradient>
    <linearGradient id="_Безымянный_градиент_5" data-name="Безымянный градиент 5" x1="16.22" y1="184.09" x2="110.04" y2="184.09" gradientUnits="userSpaceOnUse">
      <stop offset="0" stop-color="#5b469b"/>
      <stop offset="1" stop-color="#9268f7"/>
    </linearGradient>
  </defs>
  <g id="_Слой_1" data-name="Слой 1">
    <g>
      <g>
        <path class="cls-1" d="m185.62,201.54c8.72-4.71,14.38-14.41,14.38-25.17v-78.5c25.36-8.59,48.28-5.32,64.88,6.99,24.03,38.31,5.54,58.97-79.26,96.68Z"/>
        <path class="cls-3" d="m291.76,165.87c0,27.38-10.27,55.66-26.87,79.27-16.61,23.6-39.52,42.49-64.88,51.12l-91.73,31.19c-25.36,8.59-48.28,5.32-64.88-6.99-16.61-12.34-26.87-33.63-26.87-61.01l165.21-56.16c1.36-.47,2.66-1.04,3.87-1.74h.03c84.8-37.71,103.29-58.37,79.26-96.68,16.61,12.3,26.87,33.63,26.87,61.01Z"/>
        <path class="cls-2" d="m110.04,128.99c-10.89,3.68-18.28,14.58-18.28,26.91v78.46c-25.33,8.63-48.28,5.32-64.88-6.99-32.72-41.72,14.13-73.58,83.16-98.39Z"/>
        <path class="cls-4" d="m275.27,72.79l-165.24,56.2C41.01,153.8-5.85,185.66,26.87,227.38,10.27,215.08,0,193.78,0,166.37s10.27-55.66,26.87-79.27c16.61-23.57,39.55-42.49,64.88-51.08L183.52,4.83c50.66-17.25,91.76,13.21,91.76,67.97Z"/>
      </g>
      <g>
        <path class="cls-5" d="m554.43,184.49c-4-7.49-10.69-13.89-20.01-19.21-9.32-5.32-19.21-9.65-29.62-13-10.41-3.34-24.53-7.02-42.43-11.02-17.85-4-29.34-7.06-34.37-9.18-5.09-2.17-7.63-5.6-7.63-10.41,0-12.29,12.29-18.41,36.82-18.41s38,7.44,42.8,22.41h58.01c-4-21.61-14.13-38.75-30.42-51.42-16.25-12.67-39.08-19.02-68.42-19.02s-52.74,6.45-70.21,19.4c-17.47,12.95-26.18,30.89-26.18,53.82,0,18.41,6.45,32.21,19.4,41.44,12.9,9.18,35.79,17.66,68.61,25.38,2.92.8,6.4,1.6,10.41,2.4,4,.8,7.11,1.46,9.42,2.02,2.26.52,4.9,1.18,8,1.98,3.06.8,5.37,1.46,6.97,2.02,1.6.52,3.39,1.18,5.41,1.98,1.98.8,3.53,1.7,4.61,2.59,1.04.94,2.02,1.93,2.97,3.01.94,1.08,1.6,2.26,2.02,3.63.38,1.32.61,2.78.61,4.38,0,12.01-12.43,17.99-37.25,17.99-30.65,0-48.41-9.84-53.21-29.57h-58.01c4,23.97,15.87,42.85,35.6,56.6,19.78,13.75,44.45,20.62,74.02,20.62s52.03-6.26,70.44-18.83c18.41-12.53,27.59-30.65,27.59-54.39,0-10.69-1.98-19.78-5.98-27.22Z"/>
        <path class="cls-5" d="m781.99,87.45c-19.21-21.47-43.08-32.21-71.62-32.21s-52.55,11.87-69.64,35.6v-30.79h-57.21v294.39l22.7-8.28c20.72-7.56,34.51-27.26,34.51-49.32v-46.33c17.33,22.93,40.54,34.42,69.64,34.42s52.74-10.74,71.81-32.21c19.07-21.47,28.63-49.02,28.63-82.64s-9.61-61.17-28.82-82.64Zm-45.02,126.24c-10.55,11.21-23.83,16.81-39.84,16.81s-29.71-5.6-40.4-16.81c-10.69-11.21-16.01-25.76-16.01-43.6s5.32-32.4,16.01-43.6c10.69-11.21,24.16-16.81,40.4-16.81s29.62,5.6,40.02,16.81c10.41,11.21,15.59,25.71,15.59,43.6s-5.27,32.4-15.77,43.6Z"/>
        <path class="cls-5" d="m1027.64,88.06c-22.27-21.9-49.39-32.82-81.41-32.82s-59.09,10.92-81.23,32.82c-22.13,21.85-33.2,49.21-33.2,82.03s10.97,60.13,33.01,82.03c21.99,21.85,49.11,32.82,81.41,32.82s59.8-10.88,81.84-32.63c21.99-21.75,33.01-49.16,33.01-82.21s-11.16-60.18-33.43-82.03Zm-40.78,125.63c-10.83,11.21-24.39,16.81-40.64,16.81s-29.81-5.6-40.59-16.81c-10.83-11.21-16.25-25.76-16.25-43.6s5.42-32.4,16.25-43.6c10.78-11.21,24.3-16.81,40.59-16.81s29.81,5.6,40.64,16.81c10.78,11.21,16.2,25.71,16.2,43.6s-5.41,32.4-16.2,43.6Z"/>
        <path class="cls-5" d="m1231.48,267.31c-6.68,4.54-16.22,8.59-28.64,12.19-12.39,3.6-24.71,5.42-37.01,5.42-23.74,0-43.43-7.49-59-22.41-15.6-14.92-23.42-37.33-23.42-67.23V54.74c0-24.7,17.22-46.06,41.35-51.3L1140.63,0v60.03h81.67v54.03h-81.67v78c0,26.43,11.74,39.6,35.22,39.6,10.41,0,25.72-3.57,46.02-10.77l9.6,46.41Z"/>
      </g>
    </g>
  </g>
</svg>