<?xml version="1.0" encoding="UTF-8"?>
<svg id="_Слой_1" data-name="Слой 1" xmlns="http://www.w3.org/2000/svg" xmlns:xlink="http://www.w3.org/1999/xlink" viewBox="0 0 1300 900">
  <defs>
    <style>
      .cls-1 {
        fill: url(#_Безымянный_градиент_9);
      }

      .cls-1, .cls-2, .cls-3, .cls-4, .cls-5 {
        stroke-width: 0px;
      }

      .cls-2 {
        fill: url(#_Безымянный_градиент_5);
      }

      .cls-3 {
        fill: #8920ed;
      }

      .cls-4 {
        fill: #9268f7;
      }

      .cls-5 {
        fill: #31004a;
      }
    </style>
    <linearGradient id="_Безымянный_градиент_9" data-name="Безымянный градиент 9" x1="510.92" y1="440.33" x2="539.69" y2="440.33" gradientUnits="userSpaceOnUse">
      <stop offset="0" stop-color="#8920ed"/>
      <stop offset="1" stop-color="#5817a3"/>
    </linearGradient>
    <linearGradient id="_Безымянный_градиент_5" data-name="Безымянный градиент 5" x1="456.15" y1="452.22" x2="486.48" y2="452.22" gradientUnits="userSpaceOnUse">
      <stop offset="0" stop-color="#5b469b"/>
      <stop offset="1" stop-color="#9268f7"/>
    </linearGradient>
  </defs>
  <g>
    <path class="cls-1" d="m510.92,457.87c2.82-1.52,4.65-4.66,4.65-8.14v-25.38c8.2-2.78,15.61-1.72,20.98,2.26,7.77,12.39,1.79,19.07-25.63,31.26Z"/>
    <path class="cls-3" d="m545.24,446.33c0,8.85-3.32,18-8.69,25.63-5.37,7.63-12.78,13.74-20.98,16.53l-29.66,10.09c-8.2,2.78-15.61,1.72-20.98-2.26-5.37-3.99-8.69-10.87-8.69-19.73l53.42-18.16c.44-.15.86-.34,1.25-.56h.01c27.42-12.19,33.4-18.87,25.63-31.26,5.37,3.98,8.69,10.87,8.69,19.73Z"/>
    <path class="cls-2" d="m486.48,434.41c-3.52,1.19-5.91,4.71-5.91,8.7v25.37c-8.19,2.79-15.61,1.72-20.98-2.26-10.58-13.49,4.57-23.79,26.89-31.81Z"/>
    <path class="cls-4" d="m539.91,416.23l-53.43,18.17c-22.32,8.02-37.47,18.32-26.89,31.81-5.37-3.98-8.69-10.86-8.69-19.73s3.32-18,8.69-25.63c5.37-7.62,12.79-13.74,20.98-16.52l29.67-10.09c16.38-5.58,29.67,4.27,29.67,21.98Z"/>
  </g>
  <g>
    <path class="cls-5" d="m630.18,452.35c-1.29-2.42-3.46-4.49-6.47-6.21-3.01-1.72-6.21-3.12-9.58-4.2-3.36-1.08-7.93-2.27-13.72-3.56-5.77-1.29-9.49-2.28-11.11-2.97-1.64-.7-2.47-1.81-2.47-3.36,0-3.97,3.97-5.95,11.91-5.95s12.29,2.41,13.84,7.25h18.76c-1.29-6.99-4.57-12.53-9.84-16.63-5.25-4.1-12.64-6.15-22.12-6.15s-17.05,2.09-22.7,6.27c-5.65,4.19-8.47,9.99-8.47,17.4,0,5.95,2.09,10.41,6.27,13.4,4.17,2.97,11.57,5.71,22.18,8.21.94.26,2.07.52,3.36.78,1.29.26,2.3.47,3.05.65.73.17,1.58.38,2.59.64.99.26,1.74.47,2.25.65.52.17,1.1.38,1.75.64.64.26,1.14.55,1.49.84.33.3.65.62.96.97.3.35.52.73.65,1.17.12.43.2.9.2,1.42,0,3.88-4.02,5.82-12.04,5.82-9.91,0-15.65-3.18-17.2-9.56h-18.76c1.29,7.75,5.13,13.86,11.51,18.3,6.39,4.45,14.37,6.67,23.93,6.67s16.82-2.03,22.78-6.09c5.95-4.05,8.92-9.91,8.92-17.59,0-3.46-.64-6.39-1.93-8.8Z"/>
    <path class="cls-5" d="m703.76,420.97c-6.21-6.94-13.93-10.41-23.16-10.41s-16.99,3.84-22.52,11.51v-9.96h-18.5v95.19l7.34-2.68c6.7-2.44,11.16-8.81,11.16-15.95v-14.98c5.6,7.41,13.11,11.13,22.52,11.13s17.05-3.47,23.22-10.41c6.17-6.94,9.26-15.85,9.26-26.72s-3.11-19.78-9.32-26.72Zm-14.56,40.82c-3.41,3.62-7.7,5.44-12.88,5.44s-9.61-1.81-13.06-5.44c-3.46-3.62-5.18-8.33-5.18-14.1s1.72-10.48,5.18-14.1c3.46-3.62,7.81-5.44,13.06-5.44s9.58,1.81,12.94,5.44c3.36,3.62,5.04,8.31,5.04,14.1s-1.71,10.48-5.1,14.1Z"/>
    <path class="cls-5" d="m783.19,421.17c-7.2-7.08-15.97-10.61-26.33-10.61s-19.11,3.53-26.26,10.61c-7.16,7.06-10.73,15.91-10.73,26.52s3.55,19.44,10.67,26.52c7.11,7.06,15.88,10.61,26.33,10.61s19.34-3.52,26.46-10.55c7.11-7.03,10.67-15.9,10.67-26.58s-3.61-19.46-10.81-26.52Zm-13.19,40.62c-3.5,3.62-7.89,5.44-13.14,5.44s-9.64-1.81-13.12-5.44c-3.5-3.62-5.25-8.33-5.25-14.1s1.75-10.48,5.25-14.1c3.49-3.62,7.86-5.44,13.12-5.44s9.64,1.81,13.14,5.44c3.49,3.62,5.24,8.31,5.24,14.1s-1.75,10.48-5.24,14.1Z"/>
    <path class="cls-5" d="m849.1,479.13c-2.16,1.47-5.24,2.78-9.26,3.94-4.01,1.16-7.99,1.75-11.97,1.75-7.68,0-14.04-2.42-19.08-7.25-5.04-4.82-7.57-12.07-7.57-21.74v-45.44c0-7.99,5.57-14.89,13.37-16.59l5.13-1.11v19.41h26.41v17.47h-26.41v25.22c0,8.55,3.8,12.8,11.39,12.8,3.37,0,8.32-1.15,14.88-3.48l3.1,15.01Z"/>
  </g>
</svg>