<?xml version="1.0" encoding="UTF-8"?>
<svg id="Layer_2" data-name="Layer 2" xmlns="http://www.w3.org/2000/svg" xmlns:xlink="http://www.w3.org/1999/xlink" viewBox="0 0 492.24 560.56">
  <defs>
    <style>
      .cls-1 {
        fill: url(#_Безымянный_градиент_9);
      }

      .cls-1, .cls-2, .cls-3, .cls-4 {
        stroke-width: 0px;
      }

      .cls-2 {
        fill: url(#_Безымянный_градиент_5);
      }

      .cls-3 {
        fill: #8920ed;
      }

      .cls-4 {
        fill: #9268f7;
      }
    </style>
    <linearGradient id="_Безымянный_градиент_9" data-name="Безымянный градиент 9" x1="313.17" y1="248.52" x2="463.27" y2="248.52" gradientUnits="userSpaceOnUse">
      <stop offset="0" stop-color="#8920ed"/>
      <stop offset="1" stop-color="#5817a3"/>
    </linearGradient>
    <linearGradient id="_Безымянный_градиент_5" data-name="Безымянный градиент 5" x1="27.37" y1="310.59" x2="185.65" y2="310.59" gradientUnits="userSpaceOnUse">
      <stop offset="0" stop-color="#5b469b"/>
      <stop offset="1" stop-color="#9268f7"/>
    </linearGradient>
  </defs>
  <g id="_Слой_1" data-name="Слой 1">
    <g>
      <path class="cls-1" d="m313.17,340.03c14.71-7.95,24.26-24.31,24.26-42.47v-132.44c42.79-14.5,81.45-8.97,109.47,11.79,40.54,64.64,9.34,99.5-133.73,163.12Z"/>
      <path class="cls-3" d="m492.24,279.85c0,46.2-17.32,93.91-45.34,133.73-28.02,39.82-66.68,71.69-109.47,86.24l-154.76,52.63c-42.79,14.5-81.45,8.97-109.47-11.79-28.02-20.81-45.34-56.74-45.34-102.94l278.73-94.76c2.3-.79,4.49-1.75,6.52-2.93h.05c143.07-63.62,174.27-98.48,133.73-163.12,28.02,20.76,45.34,56.74,45.34,102.94Z"/>
      <path class="cls-2" d="m185.65,217.63c-18.37,6.2-30.84,24.59-30.84,45.41v132.38c-42.73,14.55-81.45,8.97-109.47-11.79-55.2-70.39,23.85-124.15,140.31-166Z"/>
      <path class="cls-4" d="m464.43,122.81l-278.78,94.82c-116.46,41.85-195.51,95.61-140.31,166C17.32,362.87,0,326.94,0,280.69s17.32-93.91,45.34-133.73c28.02-39.76,66.74-71.69,109.47-86.19L309.62,8.14c85.47-29.1,154.81,22.28,154.81,114.67Z"/>
    </g>
  </g>
</svg>