<svg width="81" height="27" viewBox="0 0 81 27" fill="none" xmlns="http://www.w3.org/2000/svg">
<path d="M3 21.6596V6.34043H6.15059L13.8993 16.4468V6.34043H17.3054V21.6596H14.1122L6.40604 11.6383V21.6596H3Z" fill="#1E1E1E"/>
<path d="M34.8859 21.6596L40.6975 13.6383L35.6736 6.34043H39.4628L42.5921 11.1064L45.7214 6.34043H49.5106L44.4867 13.6383L50.2983 21.6596H46.211L42.5921 16.3191L38.9732 21.6596H34.8859Z" fill="#1E1E1E"/>
<path d="M54.6544 6.34043V15.5319C54.6544 16 54.7325 16.4397 54.8886 16.8511C55.0447 17.2624 55.2647 17.6241 55.5485 17.9362C55.8324 18.2482 56.1659 18.4965 56.549 18.6809C56.9322 18.8511 57.358 18.9362 57.8263 18.9362C58.2946 18.9362 58.7204 18.8511 59.1036 18.6809C59.4868 18.4965 59.8203 18.2482 60.1041 17.9362C60.3879 17.6241 60.6079 17.2624 60.764 16.8511C60.9201 16.4397 60.9982 16 60.9982 15.5319V6.34043H64.4042V15.7447C64.4042 16.6383 64.2339 17.4681 63.8933 18.234C63.5669 19 63.1057 19.6596 62.5096 20.2128C61.9278 20.766 61.2324 21.2057 60.4234 21.5319C59.6287 21.844 58.763 22 57.8263 22C56.8897 22 56.0168 21.844 55.2079 21.5319C54.4132 21.2057 53.7178 20.766 53.1217 20.2128C52.5398 19.6596 52.0786 19 51.738 18.234C51.4116 17.4681 51.2484 16.6383 51.2484 15.7447V6.34043H54.6544Z" fill="#1E1E1E"/>
<path d="M73.5581 12.6809C74.0832 12.7801 74.587 12.9433 75.0696 13.1702C75.5663 13.383 76.0062 13.6667 76.3894 14.0213C76.7726 14.3759 77.0777 14.7943 77.3048 15.2766C77.546 15.7447 77.6667 16.2837 77.6667 16.8936C77.6667 17.6312 77.5248 18.3121 77.2409 18.9362C76.9713 19.5603 76.581 20.0993 76.0701 20.5532C75.5592 21.0071 74.9347 21.3617 74.1968 21.617C73.473 21.8723 72.657 22 71.7487 22C70.9255 22 70.1592 21.8582 69.4496 21.5745C68.74 21.2766 68.1227 20.8794 67.5976 20.383C67.0867 19.8865 66.6822 19.3121 66.3842 18.6596C66.1003 18.0071 65.9584 17.3191 65.9584 16.5957H69.2793C69.3503 17.2624 69.6057 17.8227 70.0457 18.2766C70.4998 18.7163 71.0675 18.9362 71.7487 18.9362C72.5434 18.9362 73.175 18.7589 73.6433 18.4043C74.1258 18.0496 74.3671 17.5461 74.3671 16.8936C74.3671 16.5674 74.2819 16.305 74.1116 16.1064C73.9555 15.8936 73.7213 15.7092 73.4091 15.5532C73.0969 15.3972 72.7137 15.2624 72.2596 15.1489C71.8196 15.0213 71.3158 14.8936 70.7481 14.766C70.1237 14.6241 69.5347 14.4397 68.9813 14.2128C68.4278 13.9858 67.9382 13.7092 67.5124 13.383C67.1008 13.0567 66.7744 12.6809 66.5332 12.2553C66.2919 11.8298 66.1713 11.3404 66.1713 10.7872C66.1713 10.078 66.299 9.43262 66.5545 8.85106C66.8241 8.2695 67.2002 7.76596 67.6827 7.34043C68.1652 6.91489 68.7471 6.58865 69.4283 6.3617C70.1237 6.12057 70.8972 6 71.7487 6C72.515 6 73.2388 6.12057 73.92 6.3617C74.6012 6.60284 75.1973 6.93617 75.7082 7.3617C76.2333 7.78723 76.6449 8.29078 76.9429 8.87234C77.2409 9.43972 77.3899 10.0638 77.3899 10.7447H74.0052C73.8633 10.2624 73.5794 9.86525 73.1537 9.55319C72.7421 9.22695 72.2738 9.06383 71.7487 9.06383C71.11 9.06383 70.5708 9.21986 70.1308 9.53191C69.6909 9.82979 69.4709 10.2057 69.4709 10.6596C69.4709 10.9291 69.5844 11.1702 69.8115 11.383C70.0528 11.5957 70.365 11.7872 70.7481 11.9574C71.1313 12.1135 71.5642 12.2553 72.0467 12.383C72.5434 12.4965 73.0472 12.5957 73.5581 12.6809Z" fill="#1E1E1E"/>
<path fill-rule="evenodd" clip-rule="evenodd" d="M21.9303 10.2262C20.6666 10.5134 19.1974 10.8473 19.1974 13.9855C19.1974 18.4883 21.6843 21.9668 26.3226 21.9668C30.9609 21.9668 35.6195 17.503 35.6195 13.0002C35.6195 8.49751 32.0469 6.00039 27.4086 6.00039C24.2016 6.00039 24.004 7.21901 23.823 8.3353C23.7422 8.83348 23.6647 9.31129 23.3245 9.65129C22.9905 9.98522 22.4798 10.1013 21.9303 10.2262ZM29.7812 17.6257C32.0696 16.1355 32.8625 13.2979 31.5522 11.2878C30.2418 9.27772 27.3245 8.85624 25.0361 10.3464C22.7477 11.8366 21.9548 14.6742 23.2651 16.6843C24.5755 18.6944 27.4928 19.1159 29.7812 17.6257Z" fill="#1E1E1E"/>
</svg>
