<svg width="112" height="24" viewBox="0 0 112 24" fill="none" xmlns="http://www.w3.org/2000/svg">
<path d="M0 23.4894V0.510639H4.72588L16.349 15.6702V0.510639H21.4581V23.4894H16.6683L5.10906 8.45745V23.4894H0Z" fill="#1E1E1E"/>
<path d="M47.8289 23.4894L56.5462 11.4574L49.0103 0.510639H54.6942L59.3881 7.65958L64.0821 0.510639H69.7659L62.23 11.4574L70.9474 23.4894H64.8165L59.3881 15.4787L53.9598 23.4894H47.8289Z" fill="#1E1E1E"/>
<path d="M77.4816 0.510639V14.2979C77.4816 15 77.5987 15.6596 77.8329 16.2766C78.0671 16.8936 78.397 17.4362 78.8228 17.9043C79.2485 18.3723 79.7488 18.7447 80.3236 19.0213C80.8983 19.2766 81.537 19.4043 82.2395 19.4043C82.942 19.4043 83.5806 19.2766 84.1554 19.0213C84.7301 18.7447 85.2304 18.3723 85.6562 17.9043C86.0819 17.4362 86.4119 16.8936 86.646 16.2766C86.8802 15.6596 86.9973 15 86.9973 14.2979V0.510639H92.1063V14.617C92.1063 15.9574 91.8509 17.2021 91.34 18.3511C90.8504 19.5 90.1585 20.4894 89.2644 21.3191C88.3916 22.1489 87.3485 22.8085 86.1351 23.2979C84.943 23.766 83.6445 24 82.2395 24C80.8345 24 79.5253 23.766 78.3119 23.2979C77.1198 22.8085 76.0767 22.1489 75.1826 21.3191C74.3098 20.4894 73.6179 19.5 73.107 18.3511C72.6174 17.2021 72.3726 15.9574 72.3726 14.617V0.510639H77.4816Z" fill="#1E1E1E"/>
<path d="M105.837 10.0213C106.625 10.1702 107.381 10.4149 108.104 10.7553C108.849 11.0745 109.509 11.5 110.084 12.0319C110.659 12.5638 111.117 13.1915 111.457 13.9149C111.819 14.617 112 15.4255 112 16.3404C112 17.4468 111.787 18.4681 111.361 19.4043C110.957 20.3404 110.371 21.1489 109.605 21.8298C108.839 22.5106 107.902 23.0426 106.795 23.4255C105.709 23.8085 104.485 24 103.123 24C101.888 24 100.739 23.7872 99.6744 23.3617C98.61 22.9149 97.684 22.3192 96.8963 21.5745C96.13 20.8298 95.5233 19.9681 95.0762 18.9894C94.6505 18.0106 94.4376 16.9787 94.4376 15.8936H99.4189C99.5254 16.8936 99.9086 17.734 100.568 18.4149C101.25 19.0745 102.101 19.4043 103.123 19.4043C104.315 19.4043 105.262 19.1383 105.965 18.6064C106.689 18.0745 107.051 17.3191 107.051 16.3404C107.051 15.8511 106.923 15.4574 106.667 15.1596C106.433 14.8404 106.082 14.5638 105.614 14.3298C105.145 14.0957 104.571 13.8936 103.889 13.7234C103.229 13.5319 102.474 13.3404 101.622 13.1489C100.686 12.9362 99.8021 12.6596 98.9719 12.3191C98.1417 11.9787 97.4072 11.5638 96.7686 11.0745C96.1513 10.5851 95.6616 10.0213 95.2997 9.38298C94.9379 8.74468 94.7569 8.01064 94.7569 7.18085C94.7569 6.11702 94.9485 5.14894 95.3317 4.2766C95.7362 3.40426 96.3003 2.64894 97.0241 2.01064C97.7478 1.37234 98.6206 0.88298 99.6425 0.542554C100.686 0.180851 101.846 0 103.123 0C104.273 0 105.358 0.180851 106.38 0.542554C107.402 0.904256 108.296 1.40426 109.062 2.04255C109.85 2.68085 110.467 3.43617 110.914 4.30851C111.361 5.15957 111.585 6.09574 111.585 7.11702H106.508C106.295 6.39362 105.869 5.79787 105.231 5.32979C104.613 4.84043 103.911 4.59575 103.123 4.59575C102.165 4.59575 101.356 4.82979 100.696 5.29787C100.036 5.74468 99.7063 6.30851 99.7063 6.98936C99.7063 7.39362 99.8766 7.75532 100.217 8.07447C100.579 8.39362 101.047 8.68085 101.622 8.93617C102.197 9.17021 102.846 9.38298 103.57 9.57447C104.315 9.74468 105.071 9.89362 105.837 10.0213Z" fill="#1E1E1E"/>
<path fill-rule="evenodd" clip-rule="evenodd" d="M28.3955 6.33925C26.4999 6.77009 24.296 7.271 24.296 11.9783C24.296 18.7324 28.0265 23.9502 34.9839 23.9502C41.9413 23.9502 48.9293 17.2545 48.9293 10.5004C48.9293 3.74626 43.5703 0.000578421 36.6129 0.000578421C31.8024 0.000578421 31.506 1.82851 31.2345 3.50295C31.1133 4.25023 30.9971 4.96693 30.4868 5.47694C29.9857 5.97782 29.2197 6.15191 28.3955 6.33925ZM40.1719 17.4385C43.6045 15.2032 44.7938 10.9469 42.8283 7.93174C40.8628 4.91657 36.4867 4.28436 33.0541 6.51964C29.6215 8.75493 28.4322 13.0113 30.3977 16.0264C32.3632 19.0416 36.7393 19.6738 40.1719 17.4385Z" fill="#1E1E1E"/>
</svg>
