<svg width="75" height="16" viewBox="0 0 75 16" fill="none" xmlns="http://www.w3.org/2000/svg">
<path d="M0 15.6596V0.340426H3.15059L10.8993 10.4468V0.340426H14.3054V15.6596H11.1122L3.40604 5.6383V15.6596H0Z" fill="#1E1E1E"/>
<path d="M31.8859 15.6596L37.6975 7.6383L32.6736 0.340426H36.4628L39.5921 5.10638L42.7214 0.340426H46.5106L41.4867 7.6383L47.2983 15.6596H43.211L39.5921 10.3191L35.9732 15.6596H31.8859Z" fill="#1E1E1E"/>
<path d="M51.6544 0.340426V9.53191C51.6544 10 51.7325 10.4397 51.8886 10.8511C52.0447 11.2624 52.2647 11.6241 52.5485 11.9362C52.8324 12.2482 53.1659 12.4965 53.549 12.6809C53.9322 12.8511 54.358 12.9362 54.8263 12.9362C55.2946 12.9362 55.7204 12.8511 56.1036 12.6809C56.4868 12.4965 56.8203 12.2482 57.1041 11.9362C57.3879 11.6241 57.6079 11.2624 57.764 10.8511C57.9201 10.4397 57.9982 10 57.9982 9.53191V0.340426H61.4042V9.74468C61.4042 10.6383 61.2339 11.4681 60.8933 12.234C60.5669 13 60.1057 13.6596 59.5096 14.2128C58.9278 14.766 58.2324 15.2057 57.4234 15.5319C56.6287 15.844 55.763 16 54.8263 16C53.8897 16 53.0168 15.844 52.2079 15.5319C51.4132 15.2057 50.7178 14.766 50.1217 14.2128C49.5398 13.6596 49.0786 13 48.738 12.234C48.4116 11.4681 48.2484 10.6383 48.2484 9.74468V0.340426H51.6544Z" fill="#1E1E1E"/>
<path d="M70.5581 6.68085C71.0832 6.78014 71.587 6.94326 72.0696 7.17021C72.5663 7.38298 73.0062 7.66667 73.3894 8.02128C73.7726 8.37589 74.0777 8.79433 74.3048 9.2766C74.546 9.74468 74.6667 10.2837 74.6667 10.8936C74.6667 11.6312 74.5248 12.3121 74.2409 12.9362C73.9713 13.5603 73.581 14.0993 73.0701 14.5532C72.5592 15.0071 71.9347 15.3617 71.1968 15.617C70.473 15.8723 69.657 16 68.7487 16C67.9255 16 67.1592 15.8582 66.4496 15.5745C65.74 15.2766 65.1227 14.8794 64.5976 14.383C64.0867 13.8865 63.6822 13.3121 63.3842 12.6596C63.1003 12.0071 62.9584 11.3191 62.9584 10.5957H66.2793C66.3503 11.2624 66.6057 11.8227 67.0457 12.2766C67.4998 12.7163 68.0675 12.9362 68.7487 12.9362C69.5434 12.9362 70.175 12.7589 70.6433 12.4043C71.1258 12.0496 71.3671 11.5461 71.3671 10.8936C71.3671 10.5674 71.2819 10.305 71.1116 10.1064C70.9555 9.89362 70.7213 9.70922 70.4091 9.55319C70.0969 9.39716 69.7137 9.26241 69.2596 9.14894C68.8196 9.02128 68.3158 8.89362 67.7481 8.76596C67.1237 8.62411 66.5347 8.43972 65.9813 8.21277C65.4278 7.98582 64.9382 7.70922 64.5124 7.38298C64.1008 7.05674 63.7744 6.68085 63.5332 6.25532C63.2919 5.82979 63.1713 5.34043 63.1713 4.78723C63.1713 4.07801 63.299 3.43262 63.5545 2.85106C63.8241 2.2695 64.2002 1.76596 64.6827 1.34043C65.1652 0.914894 65.7471 0.588653 66.4283 0.361703C67.1237 0.120567 67.8972 0 68.7487 0C69.515 0 70.2388 0.120567 70.92 0.361703C71.6012 0.602838 72.1973 0.936171 72.7082 1.3617C73.2333 1.78723 73.6449 2.29078 73.9429 2.87234C74.2409 3.43972 74.3899 4.06383 74.3899 4.74468H71.0052C70.8633 4.26241 70.5794 3.86525 70.1537 3.55319C69.7421 3.22695 69.2738 3.06383 68.7487 3.06383C68.11 3.06383 67.5708 3.21986 67.1308 3.53191C66.6909 3.82979 66.4709 4.20567 66.4709 4.65958C66.4709 4.92908 66.5844 5.17021 66.8115 5.38298C67.0528 5.59575 67.365 5.78723 67.7481 5.95745C68.1313 6.11348 68.5642 6.25532 69.0467 6.38298C69.5434 6.49645 70.0472 6.59575 70.5581 6.68085Z" fill="#1E1E1E"/>
<path fill-rule="evenodd" clip-rule="evenodd" d="M18.9303 4.22617C17.6666 4.5134 16.1974 4.84734 16.1974 7.98554C16.1974 12.4883 18.6843 15.9668 23.3226 15.9668C27.9609 15.9668 32.6195 11.503 32.6195 7.00025C32.6195 2.49751 29.0469 0.000385614 24.4086 0.000385614C21.2016 0.000385614 21.004 1.21901 20.823 2.3353C20.7422 2.83348 20.6647 3.31129 20.3245 3.65129C19.9905 3.98522 19.4798 4.10127 18.9303 4.22617ZM26.7812 11.6257C29.0696 10.1355 29.8625 7.29793 28.5522 5.28782C27.2418 3.27772 24.3245 2.85624 22.0361 4.34643C19.7477 5.83662 18.9548 8.67417 20.2651 10.6843C21.5755 12.6944 24.4928 13.1159 26.7812 11.6257Z" fill="#1E1E1E"/>
</svg>
